<svg width="17" height="17" viewBox="0 0 17 17" fill="none" xmlns="http://www.w3.org/2000/svg">
<rect x="0.292725" y="0.734375" width="16.0256" height="16.0256" rx="2.67093" fill="#E8F5E9"/>
<g clip-path="url(#clip0_212_1586)">
<path fill-rule="evenodd" clip-rule="evenodd" d="M3.74931 0.799316C5.59319 0.799316 7.08798 2.29409 7.08798 4.13798V0.799316H10.4266C12.2705 0.799316 13.7653 2.29409 13.7653 4.13798C13.7653 5.98186 12.2705 7.47665 10.4266 7.47665C12.2705 7.47665 13.7653 8.97143 13.7653 10.8153C13.7653 11.7309 13.3968 12.5604 12.7999 13.1635L12.7874 13.1761L12.7764 13.1871C12.1731 13.7848 11.343 14.154 10.4266 14.154C9.51655 14.154 8.6915 13.7898 8.08924 13.1993C8.08143 13.1916 8.07362 13.1839 8.06584 13.1761C8.05853 13.1688 8.05125 13.1615 8.044 13.1541C7.45269 12.5517 7.08798 11.7261 7.08798 10.8153C7.08798 12.6592 5.59319 14.154 3.74931 14.154C1.90542 14.154 0.410645 12.6592 0.410645 10.8153V7.47665H3.74931C1.90542 7.47665 0.410645 5.98186 0.410645 4.13798C0.410645 2.29409 1.90542 0.799316 3.74931 0.799316ZM6.42024 4.13798C6.42024 5.6131 5.22443 6.80891 3.74931 6.80891V1.46705C5.22443 1.46705 6.42024 2.66287 6.42024 4.13798ZM13.0976 10.8153C13.0976 9.34019 11.9018 8.14438 10.4266 8.14438C8.95152 8.14438 7.75571 9.34019 7.75571 10.8153H13.0976ZM1.07838 8.14438V10.8153C1.07838 12.2904 2.27419 13.4862 3.74931 13.4862C5.22443 13.4862 6.42024 12.2904 6.42024 10.8153V8.14438H1.07838ZM7.75571 6.80891V1.46705H10.4266C11.9018 1.46705 13.0976 2.66287 13.0976 4.13798C13.0976 5.6131 11.9018 6.80891 10.4266 6.80891H7.75571Z" fill="#5417D7"/>
</g>
<defs>
<clipPath id="clip0_212_1586">
<rect width="13.3547" height="13.3547" fill="white" transform="translate(0.410645 0.799316)"/>
</clipPath>
</defs>
</svg>
